<?xml version="1.0" encoding="utf-8"?><!-- Uploaded to: SVG Repo, www.svgrepo.com, Generator: SVG Repo Mixer Tools -->
<svg width="800px" height="800px" viewBox="0 0 24 24" fill="none" xmlns="http://www.w3.org/2000/svg">
<path d="M17.1268 2.15028C17.6261 2.38624 17.7846 3.00768 17.5079 3.48565C17.2312 3.96362 16.6178 4.12728 16.1146 3.89974C15.03 3.40935 13.8639 3.11566 12.6709 3.03534C11.1445 2.93257 9.61495 3.18183 8.20017 3.76389C6.78538 4.34594 5.52323 5.24524 4.51108 6.39239C3.72001 7.28897 3.09818 8.31822 2.67268 9.42988C2.47526 9.94568 1.92433 10.261 1.39138 10.1161C0.858439 9.97127 0.533708 9.41823 0.722442 8.89919C1.23443 7.49117 2.00666 6.18858 3.00179 5.06072C4.21793 3.68238 5.73445 2.60184 7.43437 1.90248C9.13428 1.20312 10.9721 0.903626 12.8061 1.02711C14.3068 1.12815 15.7722 1.5102 17.1268 2.15028Z" fill="#0F0F0F"/>
<path d="M20.0201 8.91621C19.4756 7.84688 18.7228 6.89722 17.8059 6.12311C16.889 5.349 15.8265 4.76607 14.681 4.40861C13.5355 4.05114 12.3301 3.92636 11.1357 4.0416C9.94123 4.15684 8.7819 4.50978 7.72587 5.07966C6.66984 5.64954 5.73843 6.42484 4.98644 7.35997C4.23444 8.2951 3.67705 9.37117 3.34704 10.5249C3.18538 11.0901 3.07988 11.6683 3.03121 12.2511C3.01084 12.3307 3 12.4141 3 12.5V17.3332C3 18.1576 2.79646 18.6456 2.6425 18.9022C2.53296 19.0847 2.43609 19.1713 2.41696 19.1875C1.98077 19.5002 1.86799 20.1048 2.16796 20.5547C2.47432 21.0142 3.09519 21.1384 3.55471 20.832C3.63204 20.7804 3.72468 20.7104 3.86337 20.5717C4.00971 20.4253 4.1868 20.2156 4.3575 19.9311C4.70354 19.3544 5 18.509 5 17.3332V12.8341C5.01408 12.2399 5.10381 11.6485 5.26803 11.0744C5.52478 10.1768 5.95843 9.33961 6.54348 8.61208C7.12852 7.88455 7.85315 7.28137 8.67474 6.83801C9.49633 6.39464 10.3983 6.12006 11.3276 6.0304C12.2568 5.94074 13.1946 6.03782 14.0858 6.31593C14.977 6.59404 15.8036 7.04755 16.517 7.64981C17.2303 8.25206 17.816 8.99089 18.2396 9.82283C18.4483 10.2326 18.6155 10.6608 18.7396 11.1012C19.0927 12.59 19.2646 13.5941 19.3135 14.6704C19.3722 15.9606 19.2562 17.388 19.005 19.9005C18.95 20.45 19.351 20.9401 19.9005 20.995C20.45 21.05 20.9401 20.649 20.995 20.0995C21.2438 17.6119 21.3778 16.0394 21.3115 14.5796C21.2632 13.5175 21.11 12.5324 20.841 11.3158C20.7991 11.0956 20.7489 10.8771 20.6907 10.6608C20.5353 10.0048 20.3195 9.50404 20.0201 8.91621Z" fill="#0F0F0F"/>
<path d="M1.17257 11.0106C0.634077 10.9117 0.113017 11.268 0.0588556 11.8128C-0.081407 13.2237 0.0295143 14.6485 0.386451 16.0207C0.52428 16.5506 1.09421 16.822 1.6109 16.6409C2.1276 16.4598 2.39451 15.8948 2.26536 15.3628C2.01211 14.3194 1.92824 13.242 2.01696 12.1721C2.06221 11.6264 1.71107 11.1096 1.17257 11.0106Z" fill="#0F0F0F"/>
<path d="M23.9985 12.8083C24.0072 13.3555 23.5308 13.7691 22.9847 13.7327C22.4387 13.6963 22.0308 13.2234 22.0131 12.6764C21.9681 11.2865 21.6341 9.91726 21.0282 8.65752C20.4222 7.39777 19.561 6.28215 18.5032 5.37942C18.0869 5.02419 17.9721 4.41027 18.2845 3.96096C18.5969 3.51165 19.2174 3.3976 19.6395 3.74597C20.9753 4.84876 22.0598 6.23042 22.814 7.79852C23.5683 9.36662 23.9708 11.0763 23.9985 12.8083Z" fill="#0F0F0F"/>
<path d="M17.9942 13.2638C17.9699 13.8156 17.4295 14.161 16.8895 14.0455L16.536 13.9699C15.9959 13.8544 15.6665 13.3178 15.6311 12.7666C15.6174 12.5535 15.5849 12.3414 15.5337 12.1327C15.4026 11.5988 15.1523 11.1015 14.8015 10.6782C14.4507 10.255 14.0086 9.91668 13.5083 9.68879C13.008 9.46091 12.4626 9.34935 11.913 9.36249C11.3634 9.37564 10.8239 9.51315 10.3351 9.76469C9.84631 10.0162 9.42084 10.3753 9.09069 10.8148C8.76054 11.2544 8.53428 11.7631 8.42891 12.3026C8.38773 12.5135 8.36543 12.727 8.36194 12.9405C8.35291 13.4927 8.04949 14.0445 7.51555 14.1857L7.16611 14.2781C6.63217 14.4192 6.07591 14.1001 6.02528 13.5501C5.97314 12.9839 6.00161 12.4114 6.11124 11.85C6.28499 10.9603 6.65809 10.1215 7.20252 9.39665C7.74694 8.6718 8.44854 8.07974 9.25461 7.66495C10.0607 7.25015 10.9503 7.02339 11.8565 7.00172C12.7628 6.98004 13.6622 7.164 14.4872 7.53979C15.3122 7.91557 16.0413 8.47341 16.6197 9.1714C17.1982 9.86939 17.611 10.6894 17.827 11.5698C17.9634 12.1253 18.0192 12.6958 17.9942 13.2638Z" fill="#0F0F0F"/>
<path d="M8 16.5C8 15.9477 7.55229 15.5 7 15.5C6.44772 15.5 6 15.9477 6 16.5C6 18.1048 5.65647 19.3538 5.32153 20.1911C5.15388 20.6102 4.98845 20.926 4.86959 21.1307C4.81545 21.2239 4.75944 21.3168 4.69662 21.4045C4.36925 21.8461 4.45969 22.4698 4.9 22.8C5.34183 23.1314 5.96863 23.0418 6.3 22.6C6.40836 22.4507 6.50656 22.2944 6.59917 22.1349C6.76156 21.8553 6.97112 21.4523 7.17848 20.9339C7.59354 19.8962 8 18.3952 8 16.5Z" fill="#0F0F0F"/>
<path d="M17 15.5C17.5523 15.5 18 15.9477 18 16.5C18 18.2976 17.8716 19.7168 17.7412 20.6947C17.676 21.1836 17.6103 21.5623 17.5599 21.8228C17.5328 21.9629 17.5049 22.1032 17.4704 22.2417C17.3364 22.7775 16.7933 23.1041 16.2575 22.9701C15.7222 22.8363 15.3965 22.2943 15.5295 21.759C15.5555 21.6545 15.5759 21.5484 15.5963 21.4428C15.6397 21.219 15.699 20.8789 15.7588 20.4303C15.8784 19.5332 16 18.2024 16 16.5C16 15.9477 16.4477 15.5 17 15.5Z" fill="#0F0F0F"/>
<path d="M11.8239 12.4476C12.5509 12.1987 12.6356 12.8392 12.7294 13.4601C12.9398 14.8536 12.7861 17.0747 12.5049 19.9012C12.4502 20.4507 12.8514 20.9406 13.401 20.9953C13.9506 21.0499 14.4404 20.6487 14.4951 20.0992C14.7695 17.3408 14.9622 14.8516 14.7069 13.1614C14.5821 12.3346 14.3206 11.4669 13.6907 10.9075C12.9687 10.2661 12.0495 10.2564 11.1761 10.5555C10.7476 10.7022 10.3575 10.9081 10.0434 11.2153C9.71867 11.5328 9.52989 11.9048 9.42805 12.2925C9.33149 12.6602 9.31356 13.0409 9.31671 13.3918C9.31983 13.7399 9.34613 14.1377 9.36662 14.5245C9.4486 16.0716 9.49899 18.2972 8.08086 21.6062C7.8633 22.1138 8.09845 22.7017 8.60608 22.9192C9.11371 23.1368 9.70159 22.9016 9.91915 22.394C11.501 18.703 11.455 16.1403 11.3638 14.4187C11.341 13.9885 11.3192 13.6637 11.3166 13.3739C11.3125 12.9089 11.3453 12.6115 11.8239 12.4476Z" fill="#0F0F0F"/>
</svg>